<?xml version="1.0" standalone="no"?>
<!DOCTYPE svg PUBLIC "-//W3C//DTD SVG 20010904//EN"
 "http://www.w3.org/TR/2001/REC-SVG-20010904/DTD/svg10.dtd">
<svg version="1.0" xmlns="http://www.w3.org/2000/svg"
 width="150.000000pt" height="150.000000pt" viewBox="0 0 150.000000 150.000000"
 preserveAspectRatio="xMidYMid meet">

<g transform="translate(0.000000,150.000000) scale(0.100000,-0.100000)"
fill="#000000" stroke="none">
<path d="M0 748 l0 -748 750 0 750 0 0 185 c0 181 -1 185 -19 175 -16 -8 -30
-4 -68 15 -76 41 -105 74 -99 111 4 19 -2 53 -15 90 -11 32 -21 74 -21 93 0
37 -4 34 -39 -33 -14 -25 -24 -35 -31 -28 -6 6 1 30 21 71 22 42 29 69 25 86
-6 24 -7 23 -28 -18 -19 -39 -24 -42 -58 -40 -31 2 -37 -1 -42 -23 -4 -14 -11
-24 -17 -22 -16 5 -16 6 21 106 32 85 49 107 65 82 3 -6 11 -10 17 -10 7 0 6
5 -1 14 -11 12 -6 15 31 18 38 3 44 6 52 33 14 49 39 95 63 117 17 16 20 25
12 34 -11 13 -11 29 -6 184 1 52 -1 74 -9 73 -15 -3 -26 40 -18 71 4 19 0 27
-25 42 -17 10 -31 22 -31 26 0 4 -6 8 -13 8 -8 0 -22 9 -32 20 -17 18 -31 20
-167 20 l-149 0 -40 -42 c-22 -24 -44 -53 -49 -65 -12 -29 -31 -29 -56 -2 -10
11 -32 27 -49 35 -16 8 -48 27 -70 44 -38 28 -44 29 -147 30 -60 0 -108 -4
-108 -9 0 -5 6 -11 13 -14 9 -3 9 -7 -1 -20 -8 -9 -11 -20 -8 -26 3 -5 1 -11
-6 -13 -7 -3 -2 -12 12 -26 19 -18 21 -24 10 -37 -9 -11 -9 -15 -1 -15 7 0 9
-4 6 -10 -3 -5 -15 -10 -26 -10 -25 0 -35 -25 -19 -45 10 -12 16 -13 26 -4 11
9 14 8 14 -1 0 -8 7 -21 16 -31 19 -21 11 -39 -17 -39 -10 0 -19 -5 -19 -11 0
-12 -72 -8 -102 5 -11 5 -18 4 -18 -3 0 -6 6 -11 14 -11 8 0 17 -12 21 -27 3
-15 14 -33 23 -40 16 -12 16 -12 0 -13 -10 0 -18 -5 -18 -11 0 -5 -5 -7 -11
-4 -5 4 -9 17 -7 29 1 12 -7 31 -19 43 -16 16 -20 29 -16 50 12 62 7 103 -12
118 -11 8 -15 15 -8 15 7 0 10 7 7 15 -4 8 -10 13 -14 10 -5 -3 -20 8 -33 25
-14 16 -30 30 -36 30 -6 0 -11 8 -11 18 0 42 -25 57 -94 58 l-66 0 0 -748z
m850 612 c0 -5 -7 -10 -15 -10 -8 0 -15 5 -15 10 0 6 7 10 15 10 8 0 15 -4 15
-10z m6 -76 c-1 -47 3 -59 23 -75 13 -10 35 -19 50 -19 20 0 23 -2 11 -10 -26
-17 -56 -11 -80 15 -13 14 -30 23 -37 21 -7 -3 -13 -1 -13 4 0 6 5 10 10 10 6
0 10 13 10 30 0 23 18 80 25 80 0 0 1 -25 1 -56z m122 27 c3 -8 -4 -10 -20 -6
-32 8 -60 -20 -29 -30 27 -8 36 -37 16 -52 -28 -20 -65 3 -65 40 0 42 26 69
64 64 16 -2 32 -9 34 -16z m-256 -28 c9 -70 -12 -82 -55 -33 -35 39 -36 63 -2
54 15 -4 25 -2 25 5 0 6 6 11 14 11 8 0 16 -14 18 -37z m288 -4 c0 -5 -4 -9
-10 -9 -5 0 -10 7 -10 16 0 8 5 12 10 9 6 -3 10 -10 10 -16z m-200 -9 c0 -5
-9 -10 -20 -10 -11 0 -20 -4 -20 -10 0 -5 -5 -10 -10 -10 -6 0 -5 8 2 20 13
21 48 28 48 10z m207 -47 c-9 -53 -23 -59 -19 -8 2 25 9 45 14 45 7 0 8 -14 5
-37z m-267 -9 c0 -8 -4 -14 -10 -14 -5 0 -10 9 -10 21 0 11 5 17 10 14 6 -3
10 -13 10 -21z m304 -82 c14 -27 13 -30 -9 -54 -18 -19 -21 -28 -12 -37 9 -9
8 -14 -3 -21 -10 -7 -11 -10 -2 -10 6 0 12 -4 12 -10 0 -5 -9 -10 -20 -10 -11
0 -20 5 -20 11 0 7 -9 5 -22 -5 -13 -8 -37 -23 -54 -31 -30 -15 -31 -19 -26
-61 4 -42 4 -44 -21 -42 -20 2 -23 5 -15 15 14 17 3 43 -17 43 -13 0 -15 -7
-10 -32 14 -71 19 -75 55 -53 13 8 13 7 1 -8 -7 -9 -20 -17 -27 -17 -8 0 -14
-4 -14 -9 0 -5 9 -7 20 -4 16 4 20 0 20 -19 0 -35 -31 -61 -64 -52 -36 9 -39
18 -37 88 3 81 17 134 39 139 9 2 3 3 -15 2 -39 -3 -51 8 -45 41 4 24 21 35
18 12 0 -7 3 -15 8 -18 5 -3 10 5 11 17 1 13 5 26 8 29 9 10 -12 46 -24 39 -5
-4 -9 0 -9 9 0 8 -6 17 -12 20 -7 3 -1 5 14 3 19 -3 28 1 31 15 3 10 13 18 22
18 15 0 17 -6 12 -36 -13 -78 67 -92 142 -25 31 28 39 42 34 59 -8 32 14 28
31 -6z m-314 -68 c0 -18 -25 -23 -51 -10 -27 13 -36 41 -20 60 9 11 17 9 41
-12 17 -15 30 -32 30 -38z m-70 -60 c0 -8 -7 -14 -15 -14 -8 0 -15 9 -15 20 0
13 5 18 15 14 8 -4 15 -12 15 -20z m16 -43 c6 -8 20 -12 32 -8 28 7 38 -9 18
-28 -19 -20 -33 -19 -40 3 -3 9 -4 -31 -2 -90 3 -82 1 -108 -9 -108 -12 0 -25
70 -25 143 0 21 -4 36 -9 32 -6 -3 -14 3 -20 12 -7 13 -8 6 -4 -27 3 -25 9
-49 14 -54 5 -6 9 -17 9 -25 0 -14 -1 -14 -10 -1 -7 11 -10 11 -10 2 0 -7 -13
-17 -28 -23 -24 -8 -28 -14 -24 -39 3 -22 0 -30 -11 -30 -11 0 -18 14 -22 48
-9 64 -13 74 -26 66 -8 -4 -7 0 1 15 6 12 8 35 5 52 -6 27 -5 29 27 30 59 2
63 4 72 25 10 23 45 26 62 5z m34 9 c0 -5 -2 -10 -4 -10 -3 0 -8 5 -11 10 -3
6 -1 10 4 10 6 0 11 -4 11 -10z m198 -55 c-3 -3 -9 2 -12 12 -6 14 -5 15 5 6
7 -7 10 -15 7 -18z m47 -34 c-6 -43 -4 -49 14 -54 25 -6 26 -4 35 46 4 23 12
37 19 34 15 -5 15 -5 -7 -114 -13 -63 -23 -93 -32 -93 -16 0 -17 11 -5 62 8
33 6 37 -15 41 -25 4 -34 -9 -34 -47 0 -13 -9 -31 -19 -40 -19 -17 -19 -17
-17 6 2 12 11 65 21 116 12 67 21 92 32 92 12 0 14 -9 8 -49z m-471 -43 c29
-134 30 -138 14 -138 -9 0 -19 26 -31 83 -10 45 -20 92 -23 105 -5 16 -2 22 9
22 11 0 20 -21 31 -72z m361 62 c3 -5 1 -10 -4 -10 -6 0 -11 5 -11 10 0 6 2
10 4 10 3 0 8 -4 11 -10z m-423 -96 c23 -65 27 -89 22 -136 -5 -45 -3 -58 8
-58 10 0 10 -2 -1 -9 -10 -6 -12 -21 -8 -50 3 -23 1 -41 -4 -41 -5 0 -9 40 -9
89 0 79 -11 143 -29 164 -4 4 -15 1 -25 -6 -17 -12 -17 -18 -6 -53 7 -21 15
-33 17 -26 3 6 12 12 20 12 11 0 13 -3 5 -12 -6 -7 -10 -46 -11 -87 -1 -86
-11 -110 -12 -30 -1 63 -10 101 -23 97 -13 -4 -77 190 -65 197 15 10 26 -3 33
-40 6 -31 10 -35 29 -29 31 9 31 9 14 52 -16 39 -13 56 7 49 5 -2 22 -39 38
-83z m668 0 c-30 -98 -41 -125 -51 -118 -5 3 -9 -37 -9 -88 0 -64 -3 -88 -10
-78 -5 8 -10 26 -11 40 -1 17 -4 12 -9 -15 -5 -29 -7 -15 -8 55 0 94 0 95 13
50 13 -44 13 -44 14 -11 1 18 13 72 27 120 35 118 43 136 55 124 6 -6 2 -34
-11 -79z m-818 -9 c15 -34 -4 -58 -21 -26 -12 22 -36 28 -46 11 -3 -5 8 -39
25 -76 22 -49 34 -65 48 -62 10 2 17 12 17 27 0 34 23 38 31 6 8 -33 -19 -65
-56 -65 -22 0 -32 9 -51 44 -15 30 -28 42 -38 39 -14 -4 -14 -3 -2 5 12 9 13
15 3 37 -16 35 -15 42 8 65 29 29 68 26 82 -5z m581 -92 c-21 -14 -23 -23 -23
-105 0 -49 -4 -87 -8 -84 -5 3 -7 21 -6 40 2 20 -1 36 -6 36 -5 0 -11 -19 -13
-42 -2 -24 -4 -1 -5 50 -2 87 -1 92 19 92 13 0 18 4 13 12 -4 6 -3 8 2 5 6 -3
16 -2 24 4 25 15 26 9 3 -8z m66 -52 c-2 -30 -3 -31 -6 -8 -8 53 -23 26 -23
-43 0 -74 16 -96 23 -32 4 32 4 31 3 -8 -1 -33 -5 -45 -16 -45 -12 0 -16 19
-20 91 -5 89 -5 90 18 86 18 -4 22 -10 21 -41z m-412 -49 c2 -49 -1 -82 -7
-82 -6 0 -11 19 -12 43 l-1 42 -7 -50 c-6 -43 -7 -36 -8 43 -2 84 0 93 16 90
14 -3 17 -16 19 -86z m33 -3 c0 -57 -4 -88 -10 -84 -5 3 -10 44 -10 91 0 49 4
84 10 84 6 0 10 -37 10 -91z m51 -26 c2 -29 0 -56 -4 -60 -4 -3 -7 5 -8 18 l0
24 -9 -22 c-5 -13 -12 -23 -15 -23 -7 0 4 148 12 170 8 20 21 -40 24 -107z
m73 71 c7 -53 6 -153 -1 -114 l-5 24 -15 -24 c-13 -23 -14 -20 -9 39 3 35 6
77 6 92 0 46 17 33 24 -17z m47 -24 c5 0 9 16 9 36 0 21 4 33 10 29 6 -3 10
-42 10 -86 0 -46 -4 -79 -10 -79 -5 0 -10 5 -10 12 0 9 -3 9 -12 0 -23 -23
-28 -11 -28 66 0 81 13 121 18 58 2 -20 7 -36 13 -36z m60 57 c-6 -8 -8 -24
-5 -38 7 -29 7 -36 1 -76 -2 -18 0 -33 4 -33 5 0 9 -4 9 -10 0 -5 -7 -10 -15
-10 -12 0 -15 17 -15 90 0 76 2 90 16 90 13 0 14 -3 5 -13z m89 -79 c0 -50 -2
-89 -5 -87 -2 3 -5 41 -6 85 -1 91 -1 94 6 94 3 0 5 -41 5 -92z m110 -16 c2
-72 0 -83 -10 -52 -8 24 -8 24 -9 3 -1 -13 -5 -23 -10 -23 -9 0 -5 114 6 160
l6 25 8 -28 c4 -16 8 -54 9 -85z m111 -9 c2 -29 0 -56 -4 -60 -4 -3 -8 5 -8
18 -1 17 -3 19 -6 7 -2 -10 -8 -18 -13 -18 -8 0 -3 105 7 150 6 23 6 23 14
-10 4 -19 9 -59 10 -87z m-174 -79 c-3 -3 -12 -4 -19 -1 -8 3 -5 6 6 6 11 1
17 -2 13 -5z m-327 -80 c-6 -53 -19 -80 -27 -56 -3 6 -9 12 -15 12 -5 0 -16 7
-24 15 -17 17 -7 45 26 68 38 26 46 18 40 -39z m816 -275 c35 -18 64 -35 64
-38 0 -8 -33 -35 -46 -38 -5 -1 -16 -4 -24 -7 -11 -4 -23 11 -42 49 -40 79
-42 78 48 34z"/>
<path d="M819 825 c-6 -58 0 -76 26 -74 6 0 4 3 -2 6 -7 2 -13 9 -13 14 0 6 6
7 13 3 9 -6 9 -5 0 7 -6 8 -13 35 -15 59 -3 44 -3 44 -9 -15z"/>
<path d="M564 859 c8 -50 12 -57 27 -42 18 18 7 77 -15 81 -17 4 -18 0 -12
-39z m23 -21 c-3 -8 -6 -5 -6 6 -1 11 2 17 5 13 3 -3 4 -12 1 -19z"/>
<path d="M810 639 c0 -17 4 -28 10 -24 6 3 10 17 10 31 0 13 -4 24 -10 24 -5
0 -10 -14 -10 -31z"/>
<path d="M492 640 c0 -19 2 -27 5 -17 2 9 2 25 0 35 -3 9 -5 1 -5 -18z"/>
<path d="M1171 798 c-23 -62 -23 -68 -1 -68 21 0 40 33 40 71 0 26 -29 24 -39
-3z"/>
</g>
</svg>
